<?xml version="1.0" standalone="no"?>
<!DOCTYPE svg PUBLIC "-//W3C//DTD SVG 20010904//EN"
 "http://www.w3.org/TR/2001/REC-SVG-20010904/DTD/svg10.dtd">
<svg version="1.0" xmlns="http://www.w3.org/2000/svg"
 width="161.000000pt" height="161.000000pt" viewBox="0 0 161.000000 161.000000"
 preserveAspectRatio="xMidYMid meet">
<metadata>
Created by potrace 1.14, written by Peter Selinger 2001-2017
</metadata>
<g transform="translate(0.000000,161.000000) scale(0.100000,-0.100000)"
fill="#000000" stroke="none">
<path d="M1052 1437 c-99 -236 -185 -478 -174 -489 6 -6 38 -2 83 10 72 20
169 37 259 47 25 3 65 7 90 10 25 3 65 7 90 10 25 3 59 7 75 10 17 3 43 7 59
10 16 2 31 6 33 9 3 3 -3 35 -12 73 -20 82 -96 233 -139 276 -76 78 -250 207
-278 207 -7 0 -45 -77 -86 -173z m131 131 c36 -19 212 -164 242 -200 43 -50
129 -248 114 -262 -2 -2 -18 -7 -35 -10 l-30 -7 -12 62 c-18 98 -81 199 -124
199 -9 0 -48 31 -86 69 -44 44 -80 71 -101 76 -36 8 -36 5 -14 50 19 40 17 39
46 23z m-9 -141 c27 -21 66 -47 85 -57 60 -32 81 -56 107 -122 14 -35 37 -85
50 -112 14 -27 23 -50 22 -51 -2 -1 -79 -19 -173 -39 -93 -20 -210 -46 -258
-57 -49 -11 -92 -18 -95 -14 -8 7 7 48 114 312 47 116 82 189 88 185 6 -3 33
-23 60 -45z"/>
<path d="M1090 1370 c0 -17 40 -93 61 -115 10 -11 21 -36 24 -55 13 -75 57
-101 104 -62 21 16 21 19 7 72 -10 40 -24 63 -48 83 -42 36 -148 91 -148 77z
m161 -156 c27 -31 31 -54 10 -54 -11 0 -24 12 -31 30 -7 17 -27 42 -44 56
l-31 25 40 -19 c22 -11 47 -28 56 -38z"/>
<path d="M1003 1128 c-17 -20 -22 -75 -9 -93 19 -27 56 -14 80 27 16 29 19 41
10 55 -13 22 -67 29 -81 11z m48 -28 c38 -21 13 -65 -28 -49 -25 9 -30 28 -11
47 15 15 15 15 39 2z"/>
<path d="M630 1560 c-82 -14 -340 -144 -340 -172 0 -14 174 -222 271 -323 41
-44 105 -111 141 -149 42 -46 70 -67 80 -64 10 4 19 33 28 85 7 43 41 179 76
302 89 315 88 285 17 307 -63 19 -202 26 -273 14z m253 -29 c17 -7 27 -18 27
-31 0 -19 -5 -20 -56 -15 -35 3 -79 -1 -117 -11 -41 -10 -88 -14 -148 -11 -69
3 -96 1 -126 -13 -36 -16 -80 -58 -101 -97 -8 -14 -12 -13 -37 3 l-27 18 33
27 c59 48 221 122 314 142 36 8 209 -1 238 -12z m13 -88 c-6 -19 -51 -236 -60
-288 -3 -16 -12 -70 -22 -120 -9 -49 -20 -106 -23 -125 -4 -19 -11 -35 -16
-34 -5 0 -65 65 -134 143 l-124 143 54 -6 c30 -3 77 -9 106 -12 58 -7 66 0 77
71 l7 41 -58 12 c-171 37 -208 39 -242 15 l-27 -21 -38 32 c-42 37 -43 35 44
83 68 38 199 66 300 65 41 -1 91 2 110 7 51 13 52 13 46 -6z m-274 -197 c53
-1 99 -4 103 -8 4 -3 2 -15 -4 -26 -10 -18 -14 -18 -61 -6 -27 7 -77 11 -111
9 -56 -4 -99 8 -99 27 0 10 32 15 55 10 11 -3 63 -5 117 -6z"/>
<path d="M178 1258 c-91 -139 -130 -208 -143 -252 -15 -48 -21 -386 -8 -386
20 0 269 62 358 90 55 16 150 44 210 61 61 17 116 37 124 44 11 11 -1 27 -79
102 -148 141 -159 151 -284 291 -65 72 -119 132 -121 132 -2 0 -27 -37 -57
-82z m45 -19 c-40 -55 -50 -74 -78 -144 -23 -58 -33 -110 -41 -211 -6 -81 -4
-96 18 -151 l25 -61 -46 -7 c-25 -4 -48 -7 -50 -6 -16 2 -17 243 -1 302 19 71
80 198 134 282 43 66 52 75 64 63 12 -12 9 -21 -25 -67z m122 -44 c15 -16 101
-105 191 -196 90 -92 164 -169 164 -172 0 -18 -167 -67 -373 -111 -62 -13
-124 -27 -139 -31 -28 -7 -28 -7 -28 47 0 30 -7 80 -15 111 -23 90 -20 114 29
189 24 37 56 107 72 157 l29 89 21 -26 c12 -15 34 -40 49 -57z"/>
<path d="M286 1069 c-28 -22 -45 -70 -38 -108 7 -34 74 -98 112 -106 58 -13
105 32 94 91 -8 42 -33 97 -56 121 -27 29 -76 30 -112 2z m145 -77 c16 -43
-43 -107 -93 -100 -55 8 -56 117 0 136 37 12 81 -4 93 -36z"/>
<path d="M1400 954 c-183 -48 -474 -135 -517 -154 -24 -10 -43 -23 -43 -28 0
-20 491 -479 508 -476 8 2 100 165 144 254 30 62 31 70 31 185 1 179 -6 246
-22 244 -3 0 -49 -11 -101 -25z m102 -49 c4 -22 5 -87 4 -145 -5 -142 -38
-241 -132 -392 -32 -50 -37 -51 -68 -19 -27 28 -27 29 -7 36 11 3 38 27 61 52
36 41 40 51 40 97 0 30 13 89 31 146 32 97 39 163 24 233 -7 37 -6 39 16 35
19 -2 25 -11 31 -43z m-72 22 c0 -2 -9 -46 -21 -98 -11 -52 -22 -133 -24 -180
-1 -48 -9 -98 -16 -112 -21 -39 -93 -146 -99 -146 -3 0 -28 21 -55 47 -28 26
-84 76 -125 112 -41 36 -80 70 -86 75 -6 6 -43 39 -82 74 -40 35 -72 67 -72
71 0 13 48 28 250 75 107 26 220 55 250 65 53 18 80 23 80 17z"/>
<path d="M1079 751 c-24 -25 -29 -38 -29 -79 0 -80 46 -121 101 -92 23 13 69
100 69 133 0 33 -40 67 -79 67 -23 0 -41 -9 -62 -29z m93 -48 c37 -33 17 -83
-35 -83 -41 0 -67 17 -67 45 0 46 66 71 102 38z"/>
<path d="M633 724 c-72 -27 -161 -51 -352 -95 -73 -17 -155 -37 -182 -45 l-48
-14 25 -68 c14 -37 53 -108 86 -158 56 -84 67 -96 166 -162 105 -70 217 -130
226 -121 7 7 114 370 135 459 29 122 51 221 51 226 0 10 -50 1 -107 -22z m70
-37 c-3 -18 -10 -42 -14 -55 -8 -22 -10 -22 -31 -8 -30 22 -31 21 -60 -24 -23
-34 -24 -41 -11 -51 8 -7 23 -30 34 -50 l19 -38 -41 -142 c-22 -78 -43 -148
-47 -155 -5 -9 -30 9 -82 58 -41 38 -104 89 -140 113 -81 52 -91 64 -128 146
l-30 67 122 41 c66 22 184 63 261 89 77 27 143 47 147 45 4 -2 5 -18 1 -36z
m-47 -165 c-7 -7 -46 37 -46 53 0 28 16 23 33 -11 10 -20 16 -38 13 -42z
m-491 -78 c8 -18 33 -45 56 -60 24 -16 70 -61 103 -99 77 -89 115 -120 171
-136 45 -13 52 -22 36 -47 -10 -17 -49 2 -178 84 -108 69 -135 94 -181 164
-31 48 -82 151 -82 166 0 2 10 8 23 13 19 8 23 5 30 -23 5 -17 15 -45 22 -62z"/>
<path d="M448 525 c-33 -18 -58 -63 -58 -102 0 -40 40 -116 68 -129 61 -30
111 21 119 118 5 57 3 67 -18 91 -30 33 -75 42 -111 22z m96 -76 c46 -37 27
-89 -42 -108 -67 -20 -107 45 -62 102 26 33 66 36 104 6z"/>
<path d="M792 727 c-12 -14 -35 -107 -28 -114 2 -2 9 19 16 46 7 28 16 53 21
56 16 11 149 -120 341 -335 36 -41 65 -79 65 -85 -5 -28 -446 -163 -542 -165
l-30 -1 25 -11 c24 -10 145 -6 220 7 122 22 198 51 280 110 66 47 65 47 94 19
l26 -26 -23 -17 c-96 -74 -236 -137 -328 -148 -88 -10 -298 -8 -309 3 -6 6 10
67 42 162 l52 152 38 0 c36 0 40 3 58 46 37 85 37 89 -14 117 -25 14 -47 22
-50 19 -9 -18 -28 -114 -22 -119 3 -4 6 2 6 13 0 32 15 47 40 39 18 -6 21 -12
17 -44 -2 -21 -7 -43 -11 -49 -8 -13 -36 -5 -52 14 -8 10 -23 -23 -62 -139
-28 -83 -55 -169 -61 -189 -9 -38 -9 -38 22 -39 18 0 43 -2 57 -4 14 -2 86 -5
160 -6 156 -3 163 -1 367 118 l114 66 -19 21 c-10 11 -38 43 -63 71 -54 61
-406 407 -424 417 -7 4 -18 2 -23 -5z"/>
<path d="M844 428 c-25 -12 -44 -48 -44 -83 0 -42 78 -115 125 -115 24 0 55
38 55 68 0 34 -35 111 -58 128 -20 16 -49 17 -78 2z m104 -60 c19 -19 14 -45
-15 -73 -30 -27 -52 -32 -71 -13 -17 17 -15 64 4 82 18 19 65 21 82 4z"/>
</g>
</svg>
